<svg width="512" height="512" viewBox="0 0 512 512" fill="none" xmlns="http://www.w3.org/2000/svg">
<rect width="512" height="512" rx="50" fill="#3C3D43"/>
<path d="M255.5 367.833H381.875" stroke="#FDBAA3" stroke-width="28.0833" stroke-linecap="round" stroke-linejoin="round"/>
<path d="M318.687 136.146C324.274 130.559 331.85 127.421 339.75 127.421C343.662 127.421 347.535 128.192 351.149 129.689C354.763 131.185 358.047 133.38 360.812 136.146C363.578 138.911 365.773 142.195 367.269 145.809C368.766 149.423 369.537 153.296 369.537 157.208C369.537 161.12 368.766 164.993 367.269 168.607C365.773 172.221 363.578 175.505 360.812 178.271L185.292 353.791L129.125 367.833L143.167 311.666L318.687 136.146Z" stroke="white" stroke-width="28.0833" stroke-linecap="round" stroke-linejoin="round"/>
</svg>
