<svg xmlns="http://www.w3.org/2000/svg" viewBox="0 0 400 300" width="406" height="306" class="illustration styles_illustrationTablet__1DWOa"><g id="_013" data-name="013"><path d="M156.57,226.27a218,218,0,0,0-56.43-18.6c10.09-6.69,10.66-23.82,12.35-35.81,5.44-38.48,43.61-63.06,73.29-83.31a87.85,87.85,0,0,1,7.76-4.88c3.15-1.69,11.92-6.92,14.22-2.09,2.21,4.65-3.27,13.11-6,16.52a67.16,67.16,0,0,1,6-7.67,5.45,5.45,0,0,1,2.67-1.92c2-.46,3.91,1.44,4.21,3.46s-.54,4-1.46,5.85a57.83,57.83,0,0,1-8.22,12.11c2.18-2.47,10.24-11.72,10.07-2.35a22.43,22.43,0,0,1-6.85,15.61,41.42,41.42,0,0,1,6-4.38,2.74,2.74,0,0,1,2.14-.55,2.58,2.58,0,0,1,1.44,2.07c1.34,6-2,10.3-4.28,15.43-1.78,4-2.82,7.76-5.09,11.61-8.2,13.94-16.9,27.64-26.28,40.81C179.69,191.53,156.69,226.33,156.57,226.27Z" fill="#fff"></path><path d="M156.54,226.78a.38.38,0,0,1-.19-.06h0a217.38,217.38,0,0,0-56.3-18.56.5.5,0,0,1-.19-.9c8.49-5.63,10.14-19.24,11.47-30.18.22-1.84.43-3.61.67-5.29,5.26-37.22,41.17-61.65,70-81.29l3.47-2.36a87.55,87.55,0,0,1,7.8-4.91l.7-.38c3-1.62,8.49-4.63,11.91-3.52a3.71,3.71,0,0,1,2.3,2c1.19,2.51.35,5.87-1.05,8.95.06-.08.13-.15.2-.23A5.93,5.93,0,0,1,210.29,88a3.51,3.51,0,0,1,2.75.58,5,5,0,0,1,2.07,3.3c.32,2.14-.54,4.21-1.51,6.14a59.73,59.73,0,0,1-3.75,6.37c1.5-1.12,2.9-1.72,4-1.3s1.72,1.92,1.67,4.48a22.79,22.79,0,0,1-3.89,12.26c.75-.52,1.5-1,2.27-1.47a3.18,3.18,0,0,1,2.55-.6,2.93,2.93,0,0,1,1.77,2.44c1.1,4.93-.79,8.67-2.79,12.63-.51,1-1,2.05-1.52,3.12-.62,1.39-1.16,2.78-1.68,4.13a49.85,49.85,0,0,1-3.43,7.52c-8.9,15.14-17.5,28.5-26.3,40.85-1.17,1.65-7.37,11-13.37,20L160.77,221C157.42,226,156.89,226.78,156.54,226.78ZM101.38,207.4a218,218,0,0,1,55,18.24c1.16-1.67,6.59-9.83,11.86-17.74,6-9,12.2-18.35,13.39-20,8.78-12.33,17.36-25.67,26.25-40.77a49.23,49.23,0,0,0,3.36-7.39c.52-1.35,1.07-2.76,1.7-4.17.48-1.09,1-2.14,1.53-3.16,1.93-3.8,3.74-7.38,2.72-12-.15-.67-.47-1.51-1.1-1.71a2.35,2.35,0,0,0-1.73.51,41.71,41.71,0,0,0-5.92,4.32.5.5,0,0,1-.67-.74,21.74,21.74,0,0,0,6.69-15.25c0-2-.32-3.25-1-3.53-1.31-.5-4,1.54-8.07,6.11l-.09.11a.5.5,0,0,1-.71,0,.48.48,0,0,1,0-.7l0,0a57,57,0,0,0,8.13-12c.9-1.78,1.69-3.68,1.41-5.54a4,4,0,0,0-1.65-2.62,2.48,2.48,0,0,0-2-.43,5.11,5.11,0,0,0-2.41,1.76c-1.26,1.41-2.48,2.87-3.62,4.38-1.21,1.85-2.22,3.12-2.34,3.27a.51.51,0,0,1-.69.09.49.49,0,0,1-.12-.68c.78-1.17,1.6-2.31,2.45-3.42,2.58-4,5.06-9.38,3.53-12.6a2.76,2.76,0,0,0-1.71-1.52c-3-1-8.49,2-11.12,3.45l-.7.38A85,85,0,0,0,186.06,89l-3.47,2.36c-28.69,19.52-64.4,43.82-69.6,80.6-.24,1.67-.45,3.44-.67,5.27C111,187.92,109.42,201.17,101.38,207.4Z" fill="#231f20"></path><rect x="129.65" y="26.75" width="79.88" height="159.23" rx="5.09" transform="translate(-20.5 43.61) rotate(-13.83)" fill="#fff"></rect><path d="M153.55,192.65a5.63,5.63,0,0,1-2.89-.81,5.51,5.51,0,0,1-2.53-3.45L112.51,43.66a5.59,5.59,0,0,1,4.09-6.76l67.68-16.66a5.6,5.6,0,0,1,6.77,4.09l35.62,144.73a5.61,5.61,0,0,1-4.1,6.77l-67.68,16.65A5.53,5.53,0,0,1,153.55,192.65ZM185.63,21.08a4.67,4.67,0,0,0-1.11.13L116.84,37.87a4.59,4.59,0,0,0-3.36,5.55L149.1,188.15a4.59,4.59,0,0,0,5.55,3.36l67.68-16.65h0a4.61,4.61,0,0,0,3.37-5.56L190.08,24.57a4.58,4.58,0,0,0-4.45-3.49Z" fill="#231f20"></path><rect x="132.9" y="41.26" width="71.49" height="122.55" transform="translate(-19.62 43.27) rotate(-13.83)" fill="#a181d5"></rect><rect x="176.15" y="167.66" width="19.86" height="11.46" rx="3.13" transform="translate(-36.04 49.49) rotate(-13.83)" fill="#fff"></rect><path d="M180.1,181.17a3.63,3.63,0,0,1-3.52-2.77l-1.25-5.05A3.64,3.64,0,0,1,178,169l13.21-3.25a3.64,3.64,0,0,1,4.39,2.66l1.24,5a3.63,3.63,0,0,1-2.66,4.39h0L181,181.06A3.7,3.7,0,0,1,180.1,181.17Zm12-14.57a2.8,2.8,0,0,0-.64.08l-13.2,3.25a2.61,2.61,0,0,0-1.62,1.19,2.64,2.64,0,0,0-.3,2l1.24,5a2.63,2.63,0,0,0,3.18,1.93l13.2-3.25a2.63,2.63,0,0,0,1.93-3.18l-1.24-5a2.61,2.61,0,0,0-1.19-1.62A2.58,2.58,0,0,0,192.07,166.6Zm2,10.73h0Z" fill="#e6e7e8"></path><path d="M139.46,39.39A.51.51,0,0,1,139,39a.5.5,0,0,1,.37-.61l19.76-4.86a.5.5,0,0,1,.61.36.51.51,0,0,1-.37.61l-19.76,4.86Z" fill="#e6e7e8"></path><path d="M162,33.84a.49.49,0,0,1-.48-.38.51.51,0,0,1,.36-.61l2.66-.65a.5.5,0,0,1,.24,1l-2.66.66Z" fill="#e6e7e8"></path><rect x="150.39" y="132.81" width="55.94" height="16.62" rx="6.79" transform="translate(-28.56 46.71) rotate(-13.83)" fill="#fff"></rect><path d="M158.14,155a7.29,7.29,0,0,1-7.06-5.55l-.72-3a7.3,7.3,0,0,1,5.33-8.82l41.14-10.12a7.28,7.28,0,0,1,8.81,5.33l.73,3a7.29,7.29,0,0,1-5.33,8.81h0L159.9,154.74A7.5,7.5,0,0,1,158.14,155Zm40.44-26.66a6.51,6.51,0,0,0-1.51.19L155.93,138.6a6.28,6.28,0,0,0-4.6,7.61l.72,3a6.3,6.3,0,0,0,7.61,4.6l41.14-10.13a6.29,6.29,0,0,0,4.6-7.6l-.73-3a6.32,6.32,0,0,0-6.09-4.79Zm2.34,15.84h0Z" fill="#231f20"></path><rect x="141.37" y="99.75" width="55.94" height="10.05" transform="translate(-20.13 43.5) rotate(-13.83)" fill="#fff"></rect><circle cx="148.45" cy="110.27" r="1.69" fill="#a181d5"></circle><circle cx="154.65" cy="108.75" r="1.69" fill="#a181d5"></circle><circle cx="160.84" cy="107.22" r="1.69" fill="#a181d5"></circle><circle cx="167.04" cy="105.7" r="1.69" fill="#a181d5"></circle><rect x="145.28" y="115.66" width="55.94" height="10.05" transform="translate(-23.82 44.9) rotate(-13.83)" fill="#fff"></rect><circle cx="152.36" cy="126.18" r="1.69" fill="#a181d5"></circle><circle cx="158.56" cy="124.65" r="1.69" fill="#a181d5"></circle><circle cx="164.76" cy="123.13" r="1.69" fill="#a181d5"></circle><circle cx="170.95" cy="121.61" r="1.69" fill="#a181d5"></circle><rect x="149.19" y="66.07" width="24.88" height="15.87" transform="translate(-13 40.77) rotate(-13.83)" fill="#fff"></rect><path d="M154,69.48a.48.48,0,0,1-.24-.07.49.49,0,0,1-.21-.28l-1.18-4.8a6.66,6.66,0,0,1,4.89-8.07h0a6.67,6.67,0,0,1,8.07,4.88l1.18,4.8a.46.46,0,0,1-.33.55l-12.07,3ZM158.86,57a5.91,5.91,0,0,0-1.38.16h0a5.77,5.77,0,0,0-4.22,7l1.07,4.36,11.19-2.76-1.07-4.35A5.75,5.75,0,0,0,158.86,57Zm-1.49-.28h0Z" fill="#fff"></path><circle cx="161.04" cy="71.6" r="2.38" fill="#a181d5"></circle><rect x="161.14" y="71.97" width="1.33" height="5.55" transform="translate(-13.17 40.83) rotate(-13.83)" fill="#a181d5"></rect><path d="M166.11,93.77l-.12,0-.18,0-.33-.08A36.81,36.81,0,0,1,145.07,83a33.65,33.65,0,0,1-6.25-9.38,29,29,0,0,1-2-6,1,1,0,0,1,.65-1.21c.41-.18.85-.4,1.38-.69a9.27,9.27,0,0,0,4.57-5.09,7.93,7.93,0,0,0,.08-5.07.92.92,0,0,1,.61-1.22L147,53c1.23-.54,2.47-1.09,3.72-1.61a29,29,0,0,1,8.14-2.23c2-.21,4-.37,6-.52L168,48.4a.85.85,0,0,1,1,.7l.11.42a8.66,8.66,0,0,0,.45,1.44,8.16,8.16,0,0,0,4.58,4.37,11.47,11.47,0,0,0,5.07.68,1.18,1.18,0,0,1,1.39,1,30.19,30.19,0,0,1,1,9.92c-.52,9.08-4.34,17-11.35,23.7-.75.7-1.54,1.37-2.31,2l-1.07.9a.56.56,0,0,1-.2.11l-.48.11Zm.48-.62h0ZM144.5,55.2a9,9,0,0,1-.11,5.68,10.28,10.28,0,0,1-5,5.63,15.52,15.52,0,0,1-1.46.74.52.52,0,0,0-.12.06,31.49,31.49,0,0,0,1.95,5.86,32.4,32.4,0,0,0,6.07,9.1,35.77,35.77,0,0,0,19.86,10.38c.14,0,.27.06.4.09h.05l.24,0,1-.84c.76-.63,1.55-1.29,2.27-2,6.82-6.46,10.54-14.21,11-23a29.32,29.32,0,0,0-1-9.59.59.59,0,0,0-.09-.23h0a.68.68,0,0,0-.28,0,12.57,12.57,0,0,1-5.51-.75,9.25,9.25,0,0,1-5.11-4.89,10.6,10.6,0,0,1-.51-1.6l-.1-.37-3.14.25c-1.94.15-4,.31-5.92.52a28.21,28.21,0,0,0-7.87,2.16c-1.24.52-2.47,1.05-3.7,1.59q-1.45.64-2.91,1.26Z" fill="#fff"></path><path d="M110.07,188.54s7.81-65.33,15.46-72.48c9.1-8.49,17.39-14.25,18.91-9.4s2.93,12.94-9.51,22l1.82,16.17S149,153.32,142.62,180" fill="#fff"></path><path d="M110.07,189H110a.46.46,0,0,1-.4-.51c.32-2.67,7.92-65.57,15.61-72.75,8.8-8.21,14.77-12,17.73-11.19a2.71,2.71,0,0,1,1.92,2c3.45,11-3.18,17.75-9.45,22.38l1.77,15.71c1.54,1.18,11.9,10.22,5.87,35.49a.45.45,0,0,1-.55.34.47.47,0,0,1-.34-.55c6.23-26.08-5.56-34.57-5.68-34.65a.49.49,0,0,1-.19-.33l-1.82-16.17a.46.46,0,0,1,.18-.42c11.59-8.48,11.08-16,9.34-21.53a1.86,1.86,0,0,0-1.28-1.38c-2.57-.68-8.56,3.22-16.87,11-7.45,6.95-15.25,71.54-15.33,72.19A.45.45,0,0,1,110.07,189Z" fill="#231f20"></path><polygon points="71.25 232.2 101.2 195.86 163.07 223.15 144.84 263.34 71.25 232.2" fill="#231f20"></polygon><line x1="100.14" y1="207.67" x2="146.69" y2="231.64" fill="#231f20"></line><path d="M301.36,219.36s-23.28-45.81-40.82-66.45c-2.4-2.82-5.45-3.29-7.61-1.83-2.54,1.72-2.64,7.49-2.64,7.49s-6.66-3.86-9.85-3.06-3.56,5.85-3.56,5.85-7.11-2.35-10,.18-3,7.14-3,7.14S186.39,138.55,182.26,136s-11.54,2-7.88,7.32c2.27,3.32,21.19,22.16,27.31,28.15s20.36,22.24,22,27,2.95,10.23-6.77,10.9-18.37,2.4-22.63,6-7.06,9.05-4.93,10.12,36.49-2.86,49.54,2.46,30,24.78,30,24.78Z" fill="#fff"></path><path d="M268.89,253.27h0a.52.52,0,0,1-.37-.17c-.17-.2-17.06-19.43-29.84-24.64-8.94-3.65-28.25-2.9-39.79-2.45-6.25.24-9,.33-9.78,0a1.82,1.82,0,0,1-1-1.49c-.27-2.28,2.34-6.52,5.81-9.45,3.89-3.28,11.6-5.33,22.93-6.11,3.45-.24,5.72-1.12,6.73-2.63,1.31-2,.52-4.83-.4-7.61-1.54-4.6-15.46-20.59-21.84-26.83S176.26,147,174,143.62a5,5,0,0,1,.38-6.63c1.86-1.94,5.5-3,8.17-1.4,3.84,2.35,35.48,27.75,40.9,32.11a10.42,10.42,0,0,1,3.09-6.53c2.63-2.28,8.14-1,10-.46.21-1.45,1-5,3.86-5.69s7.68,1.74,9.51,2.72c.14-1.71.68-5.62,2.82-7.07,2.52-1.71,5.84-.94,8.27,1.92,17.38,20.44,40.65,66.08,40.89,66.54a.52.52,0,0,1-.09.58l-32.47,33.41A.55.55,0,0,1,268.89,253.27Zm-54.53-28.65c9.31,0,19,.59,24.68,2.91,12.12,4.94,27.28,21.6,29.87,24.5l31.84-32.76c-2.11-4.11-24.05-46.58-40.6-66-2.07-2.44-4.86-3.14-6.94-1.74-1.9,1.3-2.39,5.55-2.42,7.09a.49.49,0,0,1-.25.42.5.5,0,0,1-.5,0c-.07,0-6.52-3.75-9.48-3-2.8.7-3.17,5.36-3.18,5.4a.5.5,0,0,1-.65.44c-.07,0-6.88-2.22-9.56.09s-2.83,6.72-2.83,6.77a.51.51,0,0,1-.29.44.49.49,0,0,1-.52-.06c-.38-.3-37.48-30.14-41.53-32.63-2.24-1.37-5.34-.42-6.92,1.24a4,4,0,0,0-.29,5.37c2.22,3.25,21,22,27.25,28.08,5.73,5.61,20.38,22.13,22.09,27.23,1,3,1.85,6.15.28,8.48-1.21,1.81-3.66,2.82-7.5,3.08-11.11.76-18.62,2.74-22.34,5.87-3.47,2.93-5.67,6.87-5.47,8.57a.82.82,0,0,0,.44.72c.57.27,4.81.1,9.3-.07S208.72,224.62,214.36,224.62Z" fill="#231f20"></path><polygon points="297.98 206.12 250.68 244.7 274.14 279.42 328.75 234.07 297.98 206.12" fill="#231f20"></polygon><rect x="229.54" y="44.12" width="60.65" height="44.75" fill="#fff"></rect><path d="M290.19,89.37H229.54a.5.5,0,0,1-.5-.5V44.12a.5.5,0,0,1,.5-.5h60.65a.5.5,0,0,1,.5.5V88.87A.5.5,0,0,1,290.19,89.37Zm-60.15-1h59.65V44.62H230Z" fill="#e6e7e8"></path><path d="M280.65,58.33a6.89,6.89,0,0,1-.59.8L259.11,80.05a1.18,1.18,0,0,1-2,0L245.35,67.87a1.15,1.15,0,0,1,.07-1.89l3-2.66a1.12,1.12,0,0,1,1.77,0l7,7.1a1.18,1.18,0,0,0,2,0l16.28-16.2a1.17,1.17,0,0,1,1.94,0c.92.93,1.84,1.85,2.75,2.78a7.43,7.43,0,0,1,.57.78Z" fill="#a181d5"></path><path d="M229,113.43a.52.52,0,0,1-.5-.46.51.51,0,0,1,.45-.54c5.15-.48,9.19-2.56,12-6.17,6.53-8.38,4.46-22.4,4.44-22.54a.5.5,0,0,1,.42-.57.51.51,0,0,1,.57.42c.09.59,2.16,14.58-4.64,23.3-3,3.84-7.27,6-12.7,6.56Z" fill="#e6e7e8"></path><path d="M148.38,236.38a.54.54,0,0,1-.21,0l-51.43-24a.5.5,0,1,1,.42-.9l51.43,24a.5.5,0,0,1,.24.67A.49.49,0,0,1,148.38,236.38Z" fill="#fff"></path><path d="M260.63,251a.51.51,0,0,1-.4-.2.5.5,0,0,1,.1-.7L301.06,219a.5.5,0,0,1,.7.09.5.5,0,0,1-.09.7l-40.74,31.16A.48.48,0,0,1,260.63,251Z" fill="#fff"></path></g></svg>